PublicSans-ThinItalic.ufo
<glyph name="exclam" format="2">
  <advance width="432"/>
  <unicode hex="0021"/>
  <guideline x="153" y="98" angle="90"/>
  <guideline x="225" y="105" angle="90"/>
  <outline>
    <contour>
      <point x="155" y="288" type="line"/>
      <point x="213" y="288" type="line"/>
      <point x="395" y="1446" type="line"/>
      <point x="301" y="1446" type="line"/>
    </contour>
    <contour>
      <point x="89" y="0" type="line"/>
      <point x="199" y="0" type="line"/>
      <point x="221" y="154" type="line"/>
      <point x="109" y="154" type="line"/>
    </contour>
  </outline>
</glyph>
<glyph name="numbersign" format="2">
  <advance width="1132"/>
  <unicode hex="0023"/>
  <outline>
    <contour>
      <point x="732" y="-2" type="line"/>
      <point x="954" y="1438" type="line"/>
      <point x="880" y="1448" type="line"/>
      <point x="658" y="10" type="line"/>
    </contour>
    <contour>
      <point x="96" y="488" type="line"/>
      <point x="1032" y="488" type="line"/>
      <point x="1032" y="562" type="line"/>
      <point x="96" y="562" type="line"/>
    </contour>
    <contour>
      <point x="336" y="-2" type="line"/>
      <point x="558" y="1438" type="line"/>
      <point x="484" y="1448" type="line"/>
      <point x="262" y="10" type="line"/>
    </contour>
    <contour>
      <point x="160" y="898" type="line"/>
      <point x="1096" y="898" type="line"/>
      <point x="1096" y="972" type="line"/>
      <point x="160" y="972" type="line"/>
    </contour>
  </outline>
</glyph>
<glyph name="percent" format="2">
  <advance width="1618"/>
  <unicode hex="0025"/>
  <outline>
    <contour>
      <point x="1131" y="-20" type="curve" smooth="yes"/>
      <point x="1303" y="-20"/>
      <point x="1443" y="122"/>
      <point x="1481" y="398" type="curve" smooth="yes"/>
      <point x="1519" y="668"/>
      <point x="1419" y="812"/>
      <point x="1249" y="812" type="curve" smooth="yes"/>
      <point x="1077" y="812"/>
      <point x="935" y="668"/>
      <point x="897" y="398" type="curve" smooth="yes"/>
      <point x="857" y="122"/>
      <point x="961" y="-20"/>
    </contour>
    <contour>
      <point x="431" y="638" type="curve" smooth="yes"/>
      <point x="603" y="638"/>
      <point x="741" y="780"/>
      <point x="781" y="1054" type="curve" smooth="yes"/>
      <point x="819" y="1326"/>
      <point x="719" y="1468"/>
      <point x="547" y="1468" type="curve" smooth="yes"/>
      <point x="377" y="1468"/>
      <point x="233" y="1326"/>
      <point x="195" y="1054" type="curve" smooth="yes"/>
      <point x="157" y="780"/>
      <point x="261" y="638"/>
    </contour>
    <contour>
      <point x="437" y="696" type="curve" smooth="yes"/>
      <point x="297" y="696"/>
      <point x="229" y="848"/>
      <point x="257" y="1054" type="curve" smooth="yes"/>
      <point x="287" y="1258"/>
      <point x="399" y="1410"/>
      <point x="537" y="1410" type="curve" smooth="yes"/>
      <point x="677" y="1410"/>
      <point x="747" y="1260"/>
      <point x="717" y="1054" type="curve" smooth="yes"/>
      <point x="689" y="846"/>
      <point x="577" y="696"/>
    </contour>
    <contour>
      <point x="1139" y="40" type="curve" smooth="yes"/>
      <point x="1005" y="40"/>
      <point x="931" y="196"/>
      <point x="959" y="396" type="curve" smooth="yes"/>
      <point x="987" y="594"/>
      <point x="1105" y="752"/>
      <point x="1239" y="752" type="curve" smooth="yes"/>
      <point x="1373" y="752"/>
      <point x="1447" y="596"/>
      <point x="1419" y="396" type="curve" smooth="yes"/>
      <point x="1391" y="196"/>
      <point x="1273" y="40"/>
    </contour>
    <component base="fraction" xScale="0.92" yxScale="0.14054" xOffset="542"/>
  </outline>
</glyph>
<glyph name="quotesingle" format="2">
  <advance width="458"/>
  <unicode hex="0027"/>
  <outline>
    <contour>
      <point x="275" y="1072" type="line"/>
      <point x="337" y="1072" type="line"/>
      <point x="429" y="1446" type="line"/>
      <point x="291" y="1446" type="line"/>
    </contour>
  </outline>
</glyph>
<glyph name="slash" format="2">
  <advance width="592"/>
  <unicode hex="002F"/>
  <guideline x="84" y="644" angle="0"/>
  <outline>
    <contour>
      <point x="-59" y="-118" type="line"/>
      <point x="17" y="-118" type="line"/>
      <point x="693" y="1446" type="line"/>
      <point x="617" y="1446" type="line"/>
    </contour>
  </outline>
</glyph>
<glyph name="less" format="2">
  <advance width="968"/>
  <unicode hex="003C"/>
  <outline>
    <contour>
      <point x="812" y="348" type="line"/>
      <point x="824" y="438" type="line"/>
      <point x="266" y="698" type="line"/>
      <point x="900" y="956" type="line"/>
      <point x="912" y="1054" type="line"/>
      <point x="162" y="744" type="line"/>
      <point x="150" y="650" type="line"/>
    </contour>
  </outline>
</glyph>
<glyph name="equal" format="2">
  <advance width="981"/>
  <unicode hex="003D"/>
  <outline>
    <contour>
      <point x="182" y="884" type="line"/>
      <point x="902" y="886" type="line"/>
      <point x="912" y="960" type="line"/>
      <point x="192" y="958" type="line"/>
    </contour>
    <contour>
      <point x="122" y="454" type="line"/>
      <point x="842" y="456" type="line"/>
      <point x="852" y="530" type="line"/>
      <point x="132" y="528" type="line"/>
    </contour>
  </outline>
</glyph>
<glyph name="greater" format="2">
  <advance width="966"/>
  <unicode hex="003E"/>
  <outline>
    <contour>
      <point x="108" y="348" type="line"/>
      <point x="854" y="650" type="line"/>
      <point x="868" y="744" type="line"/>
      <point x="206" y="1054" type="line"/>
      <point x="192" y="956" type="line"/>
      <point x="752" y="698" type="line"/>
      <point x="122" y="438" type="line"/>
    </contour>
  </outline>
</glyph>
<glyph name="F" format="2">
  <advance width="1084"/>
  <unicode hex="0046"/>
  <outline>
    <contour>
      <point x="149" y="0" type="line"/>
      <point x="227" y="0" type="line"/>
      <point x="325" y="692" type="line"/>
      <point x="951" y="692" type="line"/>
      <point x="961" y="774" type="line"/>
      <point x="337" y="774" type="line"/>
      <point x="419" y="1366" type="line"/>
      <point x="1093" y="1366" type="line"/>
      <point x="1103" y="1446" type="line"/>
      <point x="351" y="1446" type="line"/>
    </contour>
  </outline>
</glyph>
<glyph name="H" format="2">
  <advance width="1444"/>
  <unicode hex="0048"/>
  <anchor x="656" y="0" name="bottom"/>
  <anchor x="860" y="1446" name="top"/>
  <outline>
    <contour>
      <point x="148" y="0" type="line"/>
      <point x="220" y="0" type="line"/>
      <point x="320" y="712" type="line"/>
      <point x="1179" y="712" type="line"/>
      <point x="1079" y="0" type="line"/>
      <point x="1151" y="0" type="line"/>
      <point x="1354" y="1446" type="line"/>
      <point x="1282" y="1446" type="line"/>
      <point x="1191" y="794" type="line"/>
      <point x="331" y="794" type="line"/>
      <point x="423" y="1446" type="line"/>
      <point x="351" y="1446" type="line"/>
    </contour>
  </outline>
</glyph>
<glyph name="M" format="2">
  <advance width="1606"/>
  <unicode hex="004D"/>
  <guideline x="106" y="525" angle="0"/>
  <guideline x="388" y="0" angle="68.255"/>
  <outline>
    <contour>
      <point x="149" y="0" type="line"/>
      <point x="227" y="0" type="line"/>
      <point x="399" y="1216" type="line"/>
      <point x="675" y="0" type="line"/>
      <point x="781" y="0" type="line"/>
      <point x="1407" y="1232" type="line"/>
      <point x="1233" y="0" type="line"/>
      <point x="1313" y="0" type="line"/>
      <point x="1515" y="1446" type="line"/>
      <point x="1437" y="1446" type="line"/>
      <point x="739" y="88" type="line"/>
      <point x="433" y="1446" type="line"/>
      <point x="351" y="1446" type="line"/>
    </contour>
  </outline>
</glyph>
<glyph name="bracketleft" format="2">
  <advance width="515"/>
  <unicode hex="005B"/>
  <outline>
    <contour>
      <point x="95" y="-322" type="line"/>
      <point x="355" y="-322" type="line"/>
      <point x="365" y="-250" type="line"/>
      <point x="179" y="-250" type="line"/>
      <point x="409" y="1374" type="line"/>
      <point x="595" y="1374" type="line"/>
      <point x="605" y="1446" type="line"/>
      <point x="341" y="1446" type="line"/>
    </contour>
  </outline>
</glyph>
<glyph name="backslash" format="2">
  <advance width="592"/>
  <unicode hex="005C"/>
  <guideline x="5" y="609" angle="0"/>
  <outline>
    <contour>
      <point x="395" y="-118" type="line"/>
      <point x="473" y="-118" type="line"/>
      <point x="237" y="1446" type="line"/>
      <point x="161" y="1446" type="line"/>
    </contour>
  </outline>
</glyph>
<glyph name="underscore" format="2">
  <advance width="909"/>
  <unicode hex="005F"/>
  <outline>
    <contour>
      <point x="30" y="-198" type="line"/>
      <point x="678" y="-196" type="line"/>
      <point x="690" y="-118" type="line"/>
      <point x="42" y="-120" type="line"/>
    </contour>
  </outline>
</glyph>
<glyph name="c" format="2">
  <advance width="1028"/>
  <unicode hex="0063"/>
  <anchor x="469" y="0" name="bottom"/>
  <anchor x="604" y="1034" name="top"/>
  <outline>
    <contour>
      <point x="458" y="-20" type="curve" smooth="yes"/>
      <point x="631" y="-20"/>
      <point x="801" y="75"/>
      <point x="867" y="276" type="curve"/>
      <point x="788" y="276" type="line"/>
      <point x="747" y="140"/>
      <point x="621" y="54"/>
      <point x="469" y="54" type="curve" smooth="yes"/>
      <point x="238" y="54"/>
      <point x="153" y="239"/>
      <point x="192" y="514" type="curve" smooth="yes"/>
      <point x="236" y="830"/>
      <point x="398" y="978"/>
      <point x="599" y="978" type="curve" smooth="yes"/>
      <point x="751" y="978"/>
      <point x="852" y="892"/>
      <point x="855" y="756" type="curve"/>
      <point x="934" y="756" type="line"/>
      <point x="924" y="957"/>
      <point x="782" y="1054"/>
      <point x="609" y="1054" type="curve" smooth="yes"/>
      <point x="325" y="1054"/>
      <point x="160" y="837"/>
      <point x="115" y="514" type="curve" smooth="yes"/>
      <point x="64" y="150"/>
      <point x="208" y="-20"/>
    </contour>
  </outline>
</glyph>
<glyph name="e" format="2">
  <advance width="1062"/>
  <unicode hex="0065"/>
  <guideline x="169" y="483" angle="88.4926"/>
  <anchor x="477" y="0" name="bottom"/>
  <anchor x="580" y="36" name="ogonek"/>
  <anchor x="615" y="1034" name="top"/>
  <outline>
    <contour>
      <point x="477" y="-20" type="curve" smooth="yes"/>
      <point x="649" y="-20"/>
      <point x="823" y="75"/>
      <point x="889" y="276" type="curve"/>
      <point x="811" y="276" type="line"/>
      <point x="769" y="140"/>
      <point x="640" y="56"/>
      <point x="488" y="56" type="curve" smooth="yes"/>
      <point x="245" y="56"/>
      <point x="170" y="264"/>
      <point x="203" y="498" type="curve"/>
      <point x="932" y="498" type="line"/>
      <point x="939" y="554" type="line"/>
      <point x="984" y="872"/>
      <point x="864" y="1054"/>
      <point x="617" y="1054" type="curve" smooth="yes"/>
      <point x="353" y="1054"/>
      <point x="174" y="850"/>
      <point x="126" y="508" type="curve" smooth="yes"/>
      <point x="78" y="170"/>
      <point x="225" y="-20"/>
    </contour>
    <contour>
      <point x="215" y="574" type="line"/>
      <point x="241" y="768"/>
      <point x="369" y="978"/>
      <point x="605" y="978" type="curve" smooth="yes"/>
      <point x="821" y="978"/>
      <point x="898" y="804"/>
      <point x="865" y="574" type="curve"/>
    </contour>
  </outline>
</glyph>
<glyph name="i" format="2">
  <advance width="458"/>
  <unicode hex="0069"/>
  <anchor x="158" y="0" name="bottom"/>
  <outline>
    <contour>
      <point x="120" y="0" type="line"/>
      <point x="194" y="0" type="line"/>
      <point x="339" y="1034" type="line"/>
      <point x="266" y="1034" type="line"/>
    </contour>
    <contour>
      <point x="298" y="1324" type="line"/>
      <point x="386" y="1324" type="line"/>
      <point x="403" y="1444" type="line"/>
      <point x="315" y="1444" type="line"/>
    </contour>
  </outline>
</glyph>
<glyph name="j" format="2">
  <advance width="448"/>
  <unicode hex="006A"/>
  <outline>
    <contour>
      <point x="-63" y="-332" type="curve" smooth="yes"/>
      <point x="101" y="-332"/>
      <point x="150" y="-260"/>
      <point x="171" y="-100" type="curve" smooth="yes"/>
      <point x="331" y="1034" type="line"/>
      <point x="259" y="1034" type="line"/>
      <point x="101" y="-90" type="line" smooth="yes"/>
      <point x="83" y="-214"/>
      <point x="41" y="-258"/>
      <point x="-54" y="-260" type="curve" smooth="yes"/>
      <point x="-169" y="-262" type="line"/>
      <point x="-177" y="-314" type="line" smooth="yes"/>
      <point x="-177" y="-314"/>
      <point x="-171" y="-332"/>
    </contour>
    <contour>
      <point x="289" y="1294" type="line"/>
      <point x="377" y="1294" type="line"/>
      <point x="393" y="1414" type="line"/>
      <point x="305" y="1414" type="line"/>
    </contour>
  </outline>
</glyph>
<glyph name="k" format="2">
  <advance width="1022"/>
  <unicode hex="006B"/>
  <guideline x="297" y="140" angle="121.8697"/>
  <anchor x="433" y="0" name="bottom"/>
  <outline>
    <contour>
      <point x="107" y="0" type="line"/>
      <point x="180" y="0" type="line"/>
      <point x="223" y="316" type="line"/>
      <point x="514" y="592" type="line"/>
      <point x="767" y="0" type="line"/>
      <point x="859" y="0" type="line"/>
      <point x="578" y="658" type="line"/>
      <point x="972" y="1034" type="line"/>
      <point x="870" y="1034" type="line"/>
      <point x="240" y="428" type="line"/>
      <point x="388" y="1486" type="line"/>
      <point x="317" y="1486" type="line"/>
    </contour>
  </outline>
</glyph>
<glyph name="r" format="2">
  <advance width="708"/>
  <unicode hex="0072"/>
  <anchor x="138" y="0" name="bottom"/>
  <anchor x="404" y="1034" name="top"/>
  <outline>
    <contour>
      <point x="112" y="0" type="line"/>
      <point x="185" y="0" type="line"/>
      <point x="286" y="720" type="line" smooth="yes"/>
      <point x="315" y="926"/>
      <point x="488" y="972"/>
      <point x="579" y="972" type="curve"/>
      <point x="606" y="972"/>
      <point x="657" y="967"/>
      <point x="681" y="954" type="curve"/>
      <point x="692" y="1034" type="line"/>
      <point x="670" y="1048"/>
      <point x="629" y="1054"/>
      <point x="591" y="1054" type="curve"/>
      <point x="499" y="1054"/>
      <point x="372" y="1020"/>
      <point x="303" y="880" type="curve"/>
      <point x="324" y="1034" type="line"/>
      <point x="258" y="1034" type="line"/>
    </contour>
  </outline>
</glyph>
<glyph name="s" format="2">
  <advance width="942"/>
  <unicode hex="0073"/>
  <guideline x="76" y="139" angle="0"/>
  <guideline x="236" y="252" angle="256.651"/>
  <guideline x="-59" y="392" angle="180"/>
  <anchor x="406" y="0" name="bottom"/>
  <anchor x="545" y="1034" name="top"/>
  <outline>
    <contour>
      <point x="401" y="-20" type="curve" smooth="yes"/>
      <point x="628" y="-20"/>
      <point x="751" y="96"/>
      <point x="775" y="270" type="curve" smooth="yes"/>
      <point x="791" y="380"/>
      <point x="754" y="481"/>
      <point x="620" y="523" type="curve" smooth="yes"/>
      <point x="402" y="591" type="line" smooth="yes"/>
      <point x="299" y="623"/>
      <point x="243" y="670"/>
      <point x="256" y="764" type="curve" smooth="yes"/>
      <point x="276" y="910"/>
      <point x="387" y="978"/>
      <point x="538" y="978" type="curve" smooth="yes"/>
      <point x="683" y="978"/>
      <point x="750" y="899"/>
      <point x="746" y="780" type="curve"/>
      <point x="823" y="780" type="line"/>
      <point x="840" y="966"/>
      <point x="728" y="1054"/>
      <point x="548" y="1054" type="curve" smooth="yes"/>
      <point x="325" y="1054"/>
      <point x="204" y="938"/>
      <point x="180" y="764" type="curve" smooth="yes"/>
      <point x="161" y="626"/>
      <point x="238" y="555"/>
      <point x="371" y="513" type="curve" smooth="yes"/>
      <point x="590" y="445" type="line" smooth="yes"/>
      <point x="674" y="418"/>
      <point x="712" y="362"/>
      <point x="699" y="266" type="curve" smooth="yes"/>
      <point x="679" y="123"/>
      <point x="567" y="56"/>
      <point x="412" y="56" type="curve" smooth="yes"/>
      <point x="242" y="56"/>
      <point x="159" y="144"/>
      <point x="153" y="276" type="curve"/>
      <point x="76" y="276" type="line"/>
      <point x="69" y="75"/>
      <point x="200" y="-20"/>
    </contour>
  </outline>
</glyph>
<glyph name="x" format="2">
  <advance width="1010"/>
  <unicode hex="0078"/>
  <guideline x="41" y="0" angle="233.337"/>
  <guideline x="360" y="0" angle="126.663"/>
  <outline>
    <contour>
      <point x="17" y="0" type="line"/>
      <point x="106" y="0" type="line"/>
      <point x="496" y="474" type="line"/>
      <point x="756" y="0" type="line"/>
      <point x="847" y="0" type="line"/>
      <point x="553" y="536" type="line"/>
      <point x="962" y="1034" type="line"/>
      <point x="872" y="1034" type="line"/>
      <point x="515" y="598" type="line"/>
      <point x="278" y="1034" type="line"/>
      <point x="189" y="1034" type="line"/>
      <point x="458" y="536" type="line"/>
    </contour>
  </outline>
</glyph>
<glyph name="bar" format="2">
  <advance width="510"/>
  <unicode hex="007C"/>
  <outline>
    <contour>
      <point x="104" y="-322" type="line"/>
      <point x="172" y="-322" type="line"/>
      <point x="450" y="1652" type="line"/>
      <point x="380" y="1652" type="line"/>
    </contour>
  </outline>
</glyph>
<glyph name="cent" format="2">
  <advance width="984"/>
  <unicode hex="00A2"/>
  <anchor x="500" y="222" name="bottom"/>
  <anchor x="635" y="1256" name="top"/>
  <outline>
    <contour>
      <point x="594" y="1210" type="line"/>
      <point x="666" y="1210" type="line"/>
      <point x="699" y="1446" type="line"/>
      <point x="627" y="1446" type="line"/>
    </contour>
    <contour>
      <point x="407" y="0" type="line"/>
      <point x="480" y="0" type="line"/>
      <point x="513" y="236" type="line"/>
      <point x="441" y="236" type="line"/>
    </contour>
    <component base="c" xOffset="31" yOffset="222"/>
  </outline>
</glyph>
<glyph name="logicalnot" format="2">
  <advance width="981"/>
  <unicode hex="00AC"/>
  <outline>
    <contour>
      <point x="154" y="688" type="line"/>
      <point x="874" y="690" type="line"/>
      <point x="886" y="764" type="line"/>
      <point x="166" y="762" type="line"/>
    </contour>
    <contour>
      <point x="770" y="418" type="line"/>
      <point x="836" y="418" type="line"/>
      <point x="884" y="750" type="line"/>
      <point x="814" y="750" type="line"/>
    </contour>
  </outline>
</glyph>
<glyph name="ae" format="2">
  <advance width="1741"/>
  <unicode hex="00E6"/>
  <anchor x="933" y="1034" name="top"/>
  <anchor x="1156" y="0" name="bottom"/>
  <anchor x="1259" y="36" name="ogonek"/>
  <outline>
    <contour>
      <point x="358" y="-20" type="curve" smooth="yes"/>
      <point x="554" y="-20"/>
      <point x="782" y="115"/>
      <point x="810" y="316" type="curve"/>
      <point x="893" y="716" type="line"/>
      <point x="923" y="926"/>
      <point x="802" y="1054"/>
      <point x="599" y="1054" type="curve" smooth="yes"/>
      <point x="376" y="1054"/>
      <point x="238" y="904"/>
      <point x="209" y="758" type="curve"/>
      <point x="287" y="758" type="line"/>
      <point x="327" y="900"/>
      <point x="445" y="978"/>
      <point x="585" y="978" type="curve" smooth="yes"/>
      <point x="747" y="978"/>
      <point x="845" y="880"/>
      <point x="822" y="714" type="curve" smooth="yes"/>
      <point x="808" y="614" type="line"/>
      <point x="585" y="606" type="line" smooth="yes"/>
      <point x="266" y="595"/>
      <point x="124" y="496"/>
      <point x="91" y="264" type="curve" smooth="yes"/>
      <point x="66" y="88"/>
      <point x="170" y="-20"/>
    </contour>
    <contour>
      <point x="381" y="54" type="curve" smooth="yes"/>
      <point x="234" y="54"/>
      <point x="149" y="134"/>
      <point x="168" y="270" type="curve" smooth="yes"/>
      <point x="193" y="450"/>
      <point x="304" y="525"/>
      <point x="610" y="532" type="curve" smooth="yes"/>
      <point x="797" y="536" type="line"/>
      <point x="775" y="383" type="line" smooth="yes"/>
      <point x="755" y="243"/>
      <point x="594" y="54"/>
    </contour>
    <component base="e" xOffset="679"/>
  </outline>
</glyph>
<glyph name="divide" format="2">
  <advance width="980"/>
  <unicode hex="00F7"/>
  <outline>
    <contour>
      <point x="154" y="688" type="line"/>
      <point x="874" y="690" type="line"/>
      <point x="884" y="764" type="line"/>
      <point x="164" y="762" type="line"/>
    </contour>
    <contour>
      <point x="392" y="340" type="line"/>
      <point x="540" y="340" type="line"/>
      <point x="560" y="494" type="line"/>
      <point x="414" y="494" type="line"/>
    </contour>
    <contour>
      <point x="480" y="960" type="line"/>
      <point x="626" y="960" type="line"/>
      <point x="648" y="1114" type="line"/>
      <point x="500" y="1114" type="line"/>
    </contour>
  </outline>
</glyph>
<glyph name="oslash" format="2">
  <advance width="989"/>
  <unicode hex="00F8"/>
  <anchor x="496" y="1034" name="top"/>
  <anchor x="350" y="0" name="bottom"/>
  <anchor x="766" y="714" name="horn"/>
  <anchor x="455" y="20" name="ogonek"/>
  <outline>
    <contour>
      <point x="18" y="-8" type="line"/>
      <point x="1024" y="982" type="line"/>
      <point x="970" y="1038" type="line"/>
      <point x="-36" y="48" type="line"/>
    </contour>
    <component base="o" xOffset="-76"/>
  </outline>
</glyph>
<glyph name="dcroat" format="2">
  <advance width="1091"/>
  <unicode hex="0111"/>
  <anchor x="449" y="0" name="bottom"/>
  <anchor x="1027" y="1446" name="caron"/>
  <anchor x="544" y="516" name="center"/>
  <outline>
    <contour>
      <point x="568" y="1222" type="line"/>
      <point x="1130" y="1222" type="line"/>
      <point x="1130" y="1290" type="line"/>
      <point x="568" y="1290" type="line"/>
    </contour>
    <component base="d"/>
  </outline>
</glyph>
<glyph name="gcommaaccent" format="2">
  <advance width="1148"/>
  <unicode hex="0123"/>
  <anchor x="558" y="1072" name="_top"/>
  <anchor x="583" y="1034" name="top"/>
  <outline>
    <contour>
      <point x="576" y="1232" type="line"/>
      <point x="688" y="1232" type="line"/>
      <point x="712" y="1394" type="line"/>
      <point x="666" y="1394" type="line"/>
      <point x="750" y="1532" type="line"/>
      <point x="688" y="1532" type="line"/>
      <point x="600" y="1402" type="line"/>
    </contour>
    <component base="g"/>
  </outline>
</glyph>
<glyph name="hbar" format="2">
  <advance width="1190"/>
  <unicode hex="0127"/>
  <anchor x="606" y="0" name="bottom"/>
  <anchor x="469" y="1446" name="top"/>
  <outline>
    <contour>
      <point x="141" y="1222" type="line"/>
      <point x="705" y="1222" type="line"/>
      <point x="713" y="1290" type="line"/>
      <point x="149" y="1290" type="line"/>
    </contour>
    <component base="h" xOffset="100"/>
  </outline>
</glyph>
<glyph name="idotless" format="2">
  <advance width="443"/>
  <unicode hex="0131"/>
  <anchor x="174" y="26" name="ogonek"/>
  <anchor x="293" y="1034" name="top"/>
  <outline>
    <contour>
      <point x="113" y="0" type="line"/>
      <point x="185" y="0" type="line"/>
      <point x="331" y="1034" type="line"/>
      <point x="258" y="1034" type="line"/>
    </contour>
  </outline>
</glyph>
<glyph name="lslash" format="2">
  <advance width="622"/>
  <unicode hex="0142"/>
  <anchor x="258" y="2" name="bottom"/>
  <anchor x="459" y="1446" name="caron"/>
  <anchor x="427" y="1524" name="top"/>
  <outline>
    <contour>
      <point x="63" y="340" type="line"/>
      <point x="525" y="776" type="line"/>
      <point x="525" y="862" type="line"/>
      <point x="63" y="430" type="line"/>
    </contour>
    <component base="l" xOffset="71"/>
  </outline>
</glyph>
<glyph name="tbar" format="2">
  <advance width="704"/>
  <unicode hex="0167"/>
  <anchor x="441" y="0" name="bottom"/>
  <anchor x="751" y="1446" name="caron"/>
  <anchor x="473" y="620" name="center"/>
  <outline>
    <contour>
      <point x="169" y="546" type="line"/>
      <point x="615" y="546" type="line"/>
      <point x="615" y="614" type="line"/>
      <point x="169" y="614" type="line"/>
    </contour>
    <component base="t" xOffset="71"/>
  </outline>
</glyph>
<glyph name="acutecomb" format="2">
  <unicode hex="0301"/>
  <anchor x="124" y="1034" name="_top"/>
  <outline>
    <contour>
      <point x="328" y="1446" type="line"/>
      <point x="100" y="1155" type="line"/>
      <point x="171" y="1155" type="line"/>
      <point x="441" y="1446" type="line"/>
    </contour>
  </outline>
</glyph>
<glyph name="circumflexcomb" format="2">
  <unicode hex="0302"/>
  <anchor x="322" y="1034" name="_top"/>
  <outline>
    <contour>
      <point x="92" y="1155" type="line"/>
      <point x="196" y="1155" type="line"/>
      <point x="356" y="1275" type="line"/>
      <point x="474" y="1155" type="line"/>
      <point x="586" y="1155" type="line"/>
      <point x="396" y="1345" type="line"/>
      <point x="338" y="1345" type="line"/>
    </contour>
  </outline>
</glyph>
<glyph name="caroncomb" format="2">
  <unicode hex="030C"/>
  <anchor x="323" y="1034" name="_top"/>
  <outline>
    <contour>
      <point x="312" y="1154" type="line"/>
      <point x="372" y="1154" type="line"/>
      <point x="614" y="1344" type="line"/>
      <point x="504" y="1344" type="line"/>
      <point x="350" y="1224" type="line"/>
      <point x="224" y="1344" type="line"/>
      <point x="118" y="1344" type="line"/>
    </contour>
  </outline>
</glyph>
<glyph name="dblgravecomb" format="2">
  <unicode hex="030F"/>
  <anchor x="487" y="1034" name="_top"/>
  <outline>
    <contour>
      <point x="473" y="1446" type="line"/>
      <point x="363" y="1446" type="line"/>
      <point x="544" y="1155" type="line"/>
      <point x="612" y="1155" type="line"/>
    </contour>
    <contour>
      <point x="250" y="1446" type="line"/>
      <point x="141" y="1446" type="line"/>
      <point x="354" y="1155" type="line"/>
      <point x="422" y="1155" type="line"/>
    </contour>
  </outline>
</glyph>
<glyph name="commaaccentcomb" format="2">
  <unicode hex="0326"/>
  <anchor x="4" y="0" name="_bottom"/>
  <outline>
    <contour>
      <point x="-123" y="-320" type="line"/>
      <point x="-78" y="-320" type="line"/>
      <point x="34" y="-203" type="line"/>
      <point x="49" y="-100" type="line"/>
      <point x="-67" y="-100" type="line"/>
      <point x="-84" y="-221" type="line"/>
      <point x="-43" y="-221" type="line"/>
    </contour>
  </outline>
</glyph>
<glyph name="cedillacomb" format="2">
  <unicode hex="0327"/>
  <guideline x="331" y="-121" angle="0"/>
  <anchor x="128" y="0" name="_bottom"/>
  <outline>
    <contour>
      <point x="26" y="-398" type="curve" smooth="yes"/>
      <point x="122" y="-398"/>
      <point x="210" y="-350"/>
      <point x="224" y="-252" type="curve" smooth="yes"/>
      <point x="232" y="-190"/>
      <point x="210" y="-124"/>
      <point x="100" y="-114" type="curve"/>
      <point x="164" y="10" type="line"/>
      <point x="102" y="10" type="line"/>
      <point x="14" y="-154" type="line" smooth="yes"/>
      <point x="10" y="-158"/>
      <point x="10" y="-162"/>
      <point x="20" y="-162" type="curve" smooth="yes"/>
      <point x="112" y="-166"/>
      <point x="154" y="-194"/>
      <point x="144" y="-256" type="curve" smooth="yes"/>
      <point x="136" y="-310"/>
      <point x="102" y="-340"/>
      <point x="26" y="-340" type="curve" smooth="yes"/>
      <point x="-30" y="-340"/>
      <point x="-56" y="-322"/>
      <point x="-78" y="-296" type="curve"/>
      <point x="-106" y="-352" type="line"/>
      <point x="-72" y="-382"/>
      <point x="-30" y="-398"/>
    </contour>
  </outline>
</glyph>
<glyph name="dagger" format="2">
  <advance width="726"/>
  <unicode hex="2020"/>
  <outline>
    <contour>
      <point x="199" y="-322" type="line"/>
      <point x="295" y="-322" type="line"/>
      <point x="437" y="828" type="line"/>
      <point x="767" y="816" type="line"/>
      <point x="781" y="908" type="line"/>
      <point x="453" y="898" type="line"/>
      <point x="543" y="1446" type="line"/>
      <point x="447" y="1446" type="line"/>
      <point x="381" y="898" type="line"/>
      <point x="55" y="908" type="line"/>
      <point x="43" y="816" type="line"/>
      <point x="377" y="828" type="line"/>
    </contour>
  </outline>
</glyph>
<glyph name="bullet" format="2">
  <advance width="563"/>
  <unicode hex="2022"/>
  <outline>
    <contour>
      <point x="312" y="594" type="curve" smooth="yes"/>
      <point x="390" y="594"/>
      <point x="452" y="658"/>
      <point x="452" y="736" type="curve" smooth="yes"/>
      <point x="452" y="814"/>
      <point x="390" y="876"/>
      <point x="312" y="876" type="curve" smooth="yes"/>
      <point x="234" y="876"/>
      <point x="172" y="814"/>
      <point x="172" y="736" type="curve" smooth="yes"/>
      <point x="172" y="658"/>
      <point x="234" y="594"/>
    </contour>
  </outline>
</glyph>
<glyph name="perthousand" format="2">
  <advance width="2330"/>
  <unicode hex="2030"/>
  <outline>
    <contour>
      <point x="1131" y="-20" type="curve" smooth="yes"/>
      <point x="1301" y="-20"/>
      <point x="1441" y="122"/>
      <point x="1481" y="398" type="curve" smooth="yes"/>
      <point x="1519" y="668"/>
      <point x="1419" y="812"/>
      <point x="1247" y="812" type="curve" smooth="yes"/>
      <point x="1077" y="812"/>
      <point x="933" y="668"/>
      <point x="895" y="398" type="curve" smooth="yes"/>
      <point x="857" y="122"/>
      <point x="959" y="-20"/>
    </contour>
    <contour>
      <point x="431" y="638" type="curve" smooth="yes"/>
      <point x="601" y="638"/>
      <point x="741" y="780"/>
      <point x="779" y="1054" type="curve" smooth="yes"/>
      <point x="817" y="1326"/>
      <point x="717" y="1468"/>
      <point x="547" y="1468" type="curve" smooth="yes"/>
      <point x="375" y="1468"/>
      <point x="233" y="1326"/>
      <point x="195" y="1054" type="curve" smooth="yes"/>
      <point x="155" y="780"/>
      <point x="259" y="638"/>
    </contour>
    <contour>
      <point x="437" y="696" type="curve" smooth="yes"/>
      <point x="297" y="696"/>
      <point x="227" y="848"/>
      <point x="257" y="1054" type="curve" smooth="yes"/>
      <point x="285" y="1258"/>
      <point x="397" y="1410"/>
      <point x="537" y="1410" type="curve" smooth="yes"/>
      <point x="677" y="1410"/>
      <point x="745" y="1260"/>
      <point x="717" y="1054" type="curve" smooth="yes"/>
      <point x="687" y="846"/>
      <point x="577" y="696"/>
    </contour>
    <contour>
      <point x="1137" y="40" type="curve" smooth="yes"/>
      <point x="1003" y="40"/>
      <point x="929" y="196"/>
      <point x="957" y="396" type="curve" smooth="yes"/>
      <point x="985" y="594"/>
      <point x="1103" y="752"/>
      <point x="1237" y="752" type="curve" smooth="yes"/>
      <point x="1371" y="752"/>
      <point x="1445" y="596"/>
      <point x="1417" y="396" type="curve" smooth="yes"/>
      <point x="1389" y="196"/>
      <point x="1271" y="40"/>
    </contour>
    <contour>
      <point x="1843" y="-20" type="curve" smooth="yes"/>
      <point x="2013" y="-20"/>
      <point x="2153" y="122"/>
      <point x="2193" y="398" type="curve" smooth="yes"/>
      <point x="2231" y="668"/>
      <point x="2131" y="812"/>
      <point x="1959" y="812" type="curve" smooth="yes"/>
      <point x="1789" y="812"/>
      <point x="1645" y="668"/>
      <point x="1607" y="398" type="curve" smooth="yes"/>
      <point x="1569" y="122"/>
      <point x="1671" y="-20"/>
    </contour>
    <contour>
      <point x="1849" y="40" type="curve" smooth="yes"/>
      <point x="1715" y="40"/>
      <point x="1641" y="196"/>
      <point x="1669" y="396" type="curve" smooth="yes"/>
      <point x="1697" y="594"/>
      <point x="1815" y="752"/>
      <point x="1949" y="752" type="curve" smooth="yes"/>
      <point x="2083" y="752"/>
      <point x="2157" y="596"/>
      <point x="2129" y="396" type="curve" smooth="yes"/>
      <point x="2101" y="196"/>
      <point x="1983" y="40"/>
    </contour>
    <component base="fraction" xScale="0.92" yxScale="0.14054" xOffset="540"/>
  </outline>
</glyph>
<glyph name="won" format="2">
  <advance width="1779"/>
  <unicode hex="20A9"/>
  <anchor x="1049.06084" y="1446" name="top"/>
  <outline>
    <contour>
      <point x="80" y="866" type="line"/>
      <point x="1808" y="868" type="line"/>
      <point x="1818" y="942" type="line"/>
      <point x="90" y="940" type="line"/>
    </contour>
    <contour>
      <point x="36" y="554" type="line"/>
      <point x="1764" y="556" type="line"/>
      <point x="1774" y="630" type="line"/>
      <point x="46" y="628" type="line"/>
    </contour>
    <component base="W" xScale="0.92" yxScale="0.14054" xOffset="-76"/>
  </outline>
</glyph>
<glyph name="minus" format="2">
  <advance width="980"/>
  <unicode hex="2212"/>
  <outline>
    <contour>
      <point x="154" y="688" type="line"/>
      <point x="874" y="690" type="line"/>
      <point x="884" y="764" type="line"/>
      <point x="164" y="762" type="line"/>
    </contour>
  </outline>
</glyph>
<glyph name="divisionslash" format="2">
  <advance width="1089"/>
  <unicode hex="2215"/>
  <outline>
    <contour>
      <point x="1117" y="1462" type="line"/>
      <point x="1050" y="1462" type="line"/>
      <point x="31" y="-8" type="line"/>
      <point x="103" y="-8" type="line"/>
    </contour>
  </outline>
</glyph>
<glyph name="notequal" format="2">
  <advance width="981"/>
  <unicode hex="2260"/>
  <outline>
    <contour>
      <point x="244" y="168" type="line"/>
      <point x="316" y="168" type="line"/>
      <point x="788" y="1224" type="line"/>
      <point x="720" y="1224" type="line"/>
    </contour>
    <component base="equal"/>
  </outline>
</glyph>
<glyph name="__horn" format="2">
  <advance width="166"/>
  <anchor x="65" y="980" name="_horn"/>
  <anchor x="193" y="1060" name="_topright"/>
  <anchor x="193" y="1060" name="topright"/>
  <outline>
    <contour>
      <point x="65" y="980" type="line"/>
      <point x="221" y="962"/>
      <point x="311" y="1048"/>
      <point x="337" y="1238" type="curve"/>
      <point x="250" y="1238" type="line"/>
      <point x="226" y="1092"/>
      <point x="178" y="1051"/>
      <point x="76" y="1053" type="curve"/>
    </contour>
  </outline>
</glyph>
<glyph name="_emdash" format="2">
  <advance width="2171"/>
  <outline>
    <contour>
      <point x="1794" y="546" type="line"/>
      <point x="385" y="544" type="line"/>
      <point x="374" y="466" type="line"/>
      <point x="1783" y="468" type="line"/>
    </contour>
  </outline>
</glyph>
<glyph name=".notdef" format="2">
  <advance width="1697"/>
  <outline>
    <contour>
      <point x="428" y="-322" type="curve" smooth="yes"/>
      <point x="1300" y="-322" type="line" smooth="yes"/>
      <point x="1346" y="-322"/>
      <point x="1366" y="-306"/>
      <point x="1366" y="-266" type="curve"/>
      <point x="1366" y="1610" type="line" smooth="yes"/>
      <point x="1366" y="1636"/>
      <point x="1352" y="1652"/>
      <point x="1330" y="1652" type="curve" smooth="yes"/>
      <point x="412" y="1652" type="line" smooth="yes"/>
      <point x="390" y="1652"/>
      <point x="374" y="1636"/>
      <point x="374" y="1606" type="curve" smooth="yes"/>
      <point x="374" y="-274" type="line" smooth="yes"/>
      <point x="374" y="-306"/>
      <point x="386" y="-322"/>
    </contour>
    <contour>
      <point x="520" y="-224" type="line" smooth="yes"/>
      <point x="486" y="-224"/>
      <point x="476" y="-210"/>
      <point x="476" y="-184" type="curve" smooth="yes"/>
      <point x="476" y="1518" type="line" smooth="yes"/>
      <point x="476" y="1540"/>
      <point x="490" y="1554"/>
      <point x="508" y="1554" type="curve" smooth="yes"/>
      <point x="1234" y="1554" type="line" smooth="yes"/>
      <point x="1252" y="1554"/>
      <point x="1264" y="1540"/>
      <point x="1264" y="1520" type="curve" smooth="yes"/>
      <point x="1264" y="-178" type="line"/>
      <point x="1264" y="-210"/>
      <point x="1246" y="-224"/>
      <point x="1210" y="-224" type="curve" smooth="yes"/>
    </contour>
    <contour>
      <point x="1210" y="-268" type="line"/>
      <point x="1326" y="-258" type="line"/>
      <point x="518" y="1624" type="line"/>
      <point x="416" y="1572" type="line"/>
    </contour>
  </outline>
</glyph>
<glyph name="_ringacute" format="2">
  <advance width="1358"/>
  <anchor x="743" y="1034" name="_top"/>
  <outline>
    <contour>
      <point x="743" y="985" type="curve" smooth="yes"/>
      <point x="845" y="985"/>
      <point x="935" y="1069"/>
      <point x="951" y="1182" type="curve" smooth="yes"/>
      <point x="966" y="1289"/>
      <point x="899" y="1373"/>
      <point x="797" y="1373" type="curve" smooth="yes"/>
      <point x="699" y="1373"/>
      <point x="607" y="1289"/>
      <point x="594" y="1186" type="curve" smooth="yes"/>
      <point x="579" y="1071"/>
      <point x="641" y="985"/>
    </contour>
    <contour>
      <point x="753" y="1063" type="curve" smooth="yes"/>
      <point x="697" y="1063"/>
      <point x="655" y="1119"/>
      <point x="663" y="1179" type="curve" smooth="yes"/>
      <point x="672" y="1247"/>
      <point x="729" y="1295"/>
      <point x="785" y="1295" type="curve" smooth="yes"/>
      <point x="844" y="1295"/>
      <point x="884" y="1247"/>
      <point x="873" y="1179" type="curve" smooth="yes"/>
      <point x="863" y="1119"/>
      <point x="811" y="1063"/>
    </contour>
    <contour>
      <point x="763" y="1323" type="line"/>
      <point x="831" y="1323" type="line"/>
      <point x="923" y="1497" type="line"/>
      <point x="827" y="1497" type="line"/>
    </contour>
  </outline>
</glyph>
<glyph name="acutecomb.001" format="2">
  <anchor x="104" y="1034" name="_top"/>
  <outline>
    <contour>
      <point x="266" y="1446" type="line"/>
      <point x="100" y="1155" type="line"/>
      <point x="164" y="1155" type="line"/>
      <point x="378" y="1446" type="line"/>
    </contour>
  </outline>
</glyph>
<glyph name="caroncomb.alt" format="2">
  <anchor x="131" y="1446" name="_caron"/>
  <outline>
    <contour>
      <point x="192" y="1106" type="line"/>
      <point x="253" y="1106" type="line"/>
      <point x="343" y="1272" type="line"/>
      <point x="366" y="1446" type="line"/>
      <point x="269" y="1446" type="line"/>
      <point x="247" y="1280" type="line"/>
      <point x="280" y="1272" type="line"/>
    </contour>
  </outline>
</glyph>
<glyph name="colon_f_l_a_g_two_colon.liga" format="2">
  <advance width="2505"/>
  <outline>
    <contour>
      <point x="337" y="1396" type="line"/>
      <point x="2228" y="1396" type="line"/>
      <point x="2228" y="126" type="line"/>
      <point x="345" y="126" type="line"/>
    </contour>
    <contour>
      <point x="221" y="1522" type="line"/>
      <point x="221" y="2" type="line"/>
      <point x="2353" y="2" type="line"/>
      <point x="2353" y="1522" type="line"/>
    </contour>
    <contour>
      <point x="241" y="354" type="line"/>
      <point x="241" y="230" type="line"/>
      <point x="2325" y="230" type="line"/>
      <point x="2325" y="354" type="line"/>
    </contour>
    <contour>
      <point x="241" y="588" type="line"/>
      <point x="241" y="464" type="line"/>
      <point x="2325" y="464" type="line"/>
      <point x="2325" y="588" type="line"/>
    </contour>
    <contour>
      <point x="1157" y="822" type="line"/>
      <point x="1157" y="698" type="line"/>
      <point x="2325" y="698" type="line"/>
      <point x="2325" y="822" type="line"/>
    </contour>
    <contour>
      <point x="1157" y="1056" type="line"/>
      <point x="1157" y="932" type="line"/>
      <point x="2325" y="932" type="line"/>
      <point x="2325" y="1056" type="line"/>
    </contour>
    <contour>
      <point x="1157" y="1290" type="line"/>
      <point x="1157" y="1166" type="line"/>
      <point x="2325" y="1166" type="line"/>
      <point x="2325" y="1290" type="line"/>
    </contour>
    <contour>
      <point x="409" y="1288" type="line"/>
      <point x="535" y="1288" type="line"/>
      <point x="535" y="1170" type="line"/>
      <point x="409" y="1170" type="line"/>
    </contour>
    <contour>
      <point x="881" y="1288" type="line"/>
      <point x="1003" y="1288" type="line"/>
      <point x="1003" y="1170" type="line"/>
      <point x="881" y="1170" type="line"/>
    </contour>
    <contour>
      <point x="647" y="1170" type="line"/>
      <point x="769" y="1170" type="line"/>
      <point x="769" y="1054" type="line"/>
      <point x="647" y="1054" type="line"/>
    </contour>
    <contour>
      <point x="413" y="1054" type="line"/>
      <point x="535" y="1054" type="line"/>
      <point x="535" y="936" type="line"/>
      <point x="413" y="936" type="line"/>
    </contour>
    <contour>
      <point x="881" y="1054" type="line"/>
      <point x="1003" y="1054" type="line"/>
      <point x="1003" y="936" type="line"/>
      <point x="881" y="936" type="line"/>
    </contour>
    <contour>
      <point x="647" y="936" type="line"/>
      <point x="769" y="936" type="line"/>
      <point x="769" y="820" type="line"/>
      <point x="647" y="820" type="line"/>
    </contour>
    <contour>
      <point x="413" y="820" type="line"/>
      <point x="535" y="820" type="line"/>
      <point x="535" y="702" type="line"/>
      <point x="413" y="702" type="line"/>
    </contour>
    <contour>
      <point x="881" y="820" type="line"/>
      <point x="1003" y="820" type="line"/>
      <point x="1003" y="702" type="line"/>
      <point x="881" y="702" type="line"/>
    </contour>
    <contour>
      <point x="321" y="1446" type="line"/>
      <point x="315" y="586" type="line"/>
      <point x="1159" y="586" type="line"/>
      <point x="1159" y="1446" type="line"/>
    </contour>
  </outline>
</glyph>
<glyph name="espaciador" format="2">
  <advance width="69"/>
  <outline>
    <contour>
      <point x="-132" y="-414" type="line"/>
      <point x="-60" y="-414" type="line"/>
      <point x="230" y="1652" type="line"/>
      <point x="158" y="1652" type="line"/>
    </contour>
  </outline>
</glyph>
<glyph name="gravecomb.viet" format="2">
  <anchor x="287" y="1034" name="_top"/>
  <outline>
    <contour>
      <point x="246" y="1359" type="line"/>
      <point x="128" y="1359" type="line"/>
      <point x="262" y="1155" type="line"/>
      <point x="335" y="1155" type="line"/>
    </contour>
  </outline>
</glyph>
<glyph name="l.ss01" format="2">
  <advance width="507"/>
  <anchor x="282" y="0" name="bottom"/>
  <anchor x="286" y="1486" name="top"/>
  <anchor x="536" y="1492" name="topright"/>
  <outline>
    <contour>
      <point x="152" y="0" type="line"/>
      <point x="224" y="0" type="line"/>
      <point x="418" y="1486" type="line"/>
      <point x="346" y="1486" type="line"/>
    </contour>
  </outline>
</glyph>
<glyph name="one.tf" format="2">
  <advance width="1400"/>
  <outline>
    <contour>
      <point x="611" y="2" type="line"/>
      <point x="691" y="2" type="line"/>
      <point x="879" y="1448" type="line"/>
      <point x="801" y="1448" type="line"/>
      <point x="359" y="1252" type="line"/>
      <point x="347" y="1162" type="line"/>
      <point x="787" y="1358" type="line"/>
    </contour>
    <contour>
      <point x="175" y="0" type="line"/>
      <point x="1135" y="0" type="line"/>
      <point x="1145" y="82" type="line"/>
      <point x="185" y="82" type="line"/>
    </contour>
  </outline>
</glyph>
